<?xml version="1.0" standalone="no"?>
<!DOCTYPE svg PUBLIC "-//W3C//DTD SVG 1.1//EN" "http://www.w3.org/Graphics/SVG/1.1/DTD/svg11.dtd" >
<svg xmlns="http://www.w3.org/2000/svg" xmlns:xlink="http://www.w3.org/1999/xlink" version="1.1">
<metadata>
Created by FontForge 20170731 at Mon Feb 20 06:53:46 2023
 By Aleksey,,,
Copyright (C) 2004 Hoefler &#38; Frere-Jones Typography, Inc. www.typography.com
</metadata>
<defs>
<font id="WhitneyCondensed-Semibold" horiz-adv-x="743" >
  <font-face 
    font-family="WhitneyCondensed Semibold"
    font-weight="500"
    font-stretch="normal"
    units-per-em="2048"
    panose-1="0 0 0 0 0 0 0 0 0 0"
    ascent="1638"
    descent="-410"
    x-height="989"
    cap-height="1413"
    bbox="-121 -410 1554 1894"
    underline-thickness="40"
    underline-position="-312"
    unicode-range="U+0020-FB02"
  />
<missing-glyph horiz-adv-x="1024" 
 />
    <glyph glyph-name=".notdef" horiz-adv-x="1024" 
 />
    <glyph glyph-name=".null" horiz-adv-x="0" 
 />
    <glyph glyph-name="nonmarkingreturn" horiz-adv-x="682" 
 />
    <glyph glyph-name="space" unicode=" " horiz-adv-x="382" 
 />
    <glyph glyph-name="exclam" unicode="!" horiz-adv-x="487" 
d="M391 1413l-78 -938l-139 -31l-80 969h297zM375 0h-262v297h262v-297z" />
    <glyph glyph-name="quotedbl" unicode="&#x22;" horiz-adv-x="804" 
d="M713 1413l-64 -493l-141 32l-62 461h267zM346 1413l-63 -493l-142 32l-61 461h266z" />
    <glyph glyph-name="numbersign" unicode="#" horiz-adv-x="1183" 
d="M399 332l-51 -346l-151 34l45 312h-183v207h211l47 340h-192l-35 204h258l47 334h160l-47 -334h276l52 347l151 -35l-43 -312h180v-204h-211l-47 -340h195l35 -207h-260l-48 -334h-157l47 334h-279zM475 879l-47 -342h281l49 342h-283z" />
    <glyph glyph-name="dollar" unicode="$" horiz-adv-x="940" 
d="M408 -256l-138 29l37 231q-152 27 -264 96l41 219q131 -88 262 -116l68 424q-89 47 -146.5 87t-102.5 90.5t-65 110t-20 136.5q0 172 113.5 271t300.5 99h34l25 156l135 -31l-22 -143q97 -26 172 -74l-39 -219q-90 65 -174 92l-64 -401q166 -87 241 -180.5t75 -235.5
q0 -193 -119 -293t-307 -100h-5zM449 858l57 367h-25q-88 0 -133 -42.5t-45 -115.5q0 -68 30 -112t116 -97zM467 188h2q88 0 136 47t48 134q0 60 -26.5 106t-100.5 94z" />
    <glyph glyph-name="percent" unicode="%" horiz-adv-x="1372" 
d="M575 1020q0 -194 -70.5 -301t-197.5 -107q-125 0 -194.5 107.5t-69.5 300.5t69.5 301.5t194.5 108.5t196.5 -108t71.5 -302zM1143 1393l-754 -1405l-149 37l751 1402zM408 1020q0 258 -99 258q-57 0 -77.5 -64.5t-20.5 -193.5q0 -126 21 -191t77 -65q55 0 77 65t22 191z
M1329 391q0 -194 -69.5 -300.5t-196.5 -106.5q-126 0 -196 107t-70 300q0 196 69.5 304t196.5 108q124 0 195 -109t71 -303zM1161 391q0 258 -98 258q-56 0 -77 -64.5t-21 -193.5q0 -81 8 -134.5t30 -87.5t60 -34q55 0 76.5 65t21.5 191z" />
    <glyph glyph-name="ampersand" unicode="&#x26;" horiz-adv-x="1128" 
d="M1149 31l-246 -43l-125 162q-142 -177 -348 -177q-177 0 -281 105t-104 276q0 134 69 242.5t185 181.5q-59 89 -85 162t-26 160q0 147 89.5 243.5t246.5 96.5q171 0 297 -80l-37 -225q-66 47 -117.5 69.5t-107.5 22.5q-57 0 -93 -37.5t-36 -104.5q0 -58 22.5 -103.5
t82.5 -125.5l231 -307q34 136 45 285l201 -43q-23 -239 -103 -437zM666 297l-252 324q-125 -94 -125 -238q0 -97 48.5 -154t131.5 -57q123 0 197 125z" />
    <glyph glyph-name="quotesingle" unicode="'" horiz-adv-x="446" 
d="M354 1413l-65 -493l-146 32l-63 461h274z" />
    <glyph glyph-name="parenleft" unicode="(" horiz-adv-x="622" 
d="M604 -147l-196 -46q-172 193 -257 390t-85 440q0 262 122.5 486t329.5 362l51 -187q-114 -116 -187 -286.5t-73 -376.5q0 -227 68 -403t227 -379z" />
    <glyph glyph-name="parenright" unicode=")" horiz-adv-x="622" 
d="M555 647q0 -262 -123 -486t-330 -362l-49 189q114 114 187 284.5t73 378.5q0 228 -68.5 404.5t-228.5 378.5l199 43q172 -193 256 -389.5t84 -440.5z" />
    <glyph glyph-name="asterisk" unicode="*" horiz-adv-x="653" 
d="M618 1186l-178 -105l86 -190l-47 -27l-153 133l-154 -133l-45 27l82 190l-176 105l14 53l207 -20l41 202h61l41 -202l207 20z" />
    <glyph glyph-name="plus" unicode="+" horiz-adv-x="954" 
d="M868 621h-297v-326h-190v326h-295v186h295v328h190v-328h297v-186z" />
    <glyph glyph-name="comma" unicode="," horiz-adv-x="403" 
d="M360 307l-159 -500l-144 33l25 467h278z" />
    <glyph glyph-name="hyphen" unicode="-" horiz-adv-x="581" 
d="M526 475h-471v227h471v-227z" />
    <glyph glyph-name="period" unicode="." horiz-adv-x="403" 
d="M332 0h-260v307h260v-307z" />
    <glyph glyph-name="slash" unicode="/" horiz-adv-x="684" 
d="M686 1391l-557 -1645l-184 41l553 1645z" />
    <glyph glyph-name="zero" unicode="0" horiz-adv-x="1075" 
d="M1016 707q0 -351 -124.5 -542.5t-354.5 -191.5q-228 0 -352 191.5t-124 542.5t124 542t352 191q230 0 354.5 -191t124.5 -542zM760 707q0 260 -57 394t-166 134t-165.5 -134t-56.5 -394t56.5 -393.5t165.5 -133.5t166 133.5t57 393.5z" />
    <glyph glyph-name="one" unicode="1" horiz-adv-x="604" 
d="M481 0h-248v1163l-194 -73l-31 200l258 123h215v-1413z" />
    <glyph glyph-name="two" unicode="2" horiz-adv-x="874" 
d="M823 0h-778v190l371 517q119 167 119 311q0 94 -46.5 146.5t-126.5 52.5q-120 0 -266 -123l-33 229q160 117 343 117q177 0 282 -98.5t105 -288.5q0 -211 -189 -471l-260 -363h444z" />
    <glyph glyph-name="three" unicode="3" horiz-adv-x="856" 
d="M805 399q0 -205 -115.5 -315.5t-312.5 -110.5q-95 0 -186.5 27.5t-161.5 71.5l37 219q142 -103 282 -103q96 0 150.5 59t54.5 161q0 118 -75.5 173.5t-207.5 55.5h-26l-35 209h59q126 0 192 52t66 153q0 81 -46 127.5t-130 46.5q-121 0 -264 -105l-35 211
q149 107 357 107q176 0 274 -96t98 -263q0 -125 -61 -209t-160 -122q109 -35 177.5 -122t68.5 -227z" />
    <glyph glyph-name="four" unicode="4" horiz-adv-x="964" 
d="M954 305h-163v-305h-234v305h-520v164l455 944h299v-924h163v-184zM559 489v635l-299 -635h299z" />
    <glyph glyph-name="five" unicode="5" horiz-adv-x="894" 
d="M838 457q0 -232 -126 -358t-327 -126q-178 0 -340 86l35 220q162 -93 287 -93q98 0 158.5 67t60.5 191q0 109 -57 167.5t-142 58.5q-67 0 -131 -35l-158 39l54 739h622l31 -215h-453l-26 -340q83 19 123 19q172 0 280.5 -108.5t108.5 -311.5z" />
    <glyph glyph-name="six" unicode="6" horiz-adv-x="964" 
d="M502 -27q-202 0 -323.5 158t-121.5 442q0 341 166.5 563.5t470.5 307.5l33 -209q-156 -47 -264 -154t-146 -278q118 82 263 82q158 0 250 -114.5t92 -319.5q0 -218 -115.5 -348t-304.5 -130zM506 172q80 0 127 71t47 195q0 121 -44.5 184.5t-131.5 63.5q-110 0 -207 -94
v-10q0 -192 57.5 -301t151.5 -109z" />
    <glyph glyph-name="seven" unicode="7" horiz-adv-x="864" 
d="M817 1214l-473 -1228l-235 45l450 1161h-496l-36 221h790v-199z" />
    <glyph glyph-name="eight" unicode="8" horiz-adv-x="966" 
d="M483 -27q-207 0 -319.5 111t-112.5 287q0 219 211 379q-83 61 -125.5 136.5t-42.5 184.5q0 167 104 268t289 101q177 0 282 -97t105 -258q0 -202 -176 -346q106 -65 161.5 -150.5t55.5 -211.5q0 -183 -113.5 -293.5t-318.5 -110.5zM532 823q107 113 107 246
q0 87 -41.5 136.5t-116.5 49.5q-73 0 -113 -46.5t-40 -131.5q0 -82 49 -139.5t155 -114.5zM487 162q88 0 138.5 57t50.5 158q0 93 -62.5 156.5t-189.5 130.5q-131 -128 -131 -281q0 -103 53 -162t141 -59z" />
    <glyph glyph-name="nine" unicode="9" horiz-adv-x="958" 
d="M244 -31l-31 205q74 27 135 61.5t118.5 84t100.5 119t68 155.5q-111 -80 -248 -80q-163 0 -256.5 114t-93.5 326q0 223 117.5 354.5t306.5 131.5q199 0 320.5 -158.5t121.5 -441.5q0 -174 -49.5 -321.5t-139 -255.5t-208 -182t-262.5 -112zM455 713q107 0 209 92v22
q-1 189 -60 301.5t-147 112.5q-81 0 -129.5 -72.5t-48.5 -201.5q0 -125 46 -189.5t130 -64.5z" />
    <glyph glyph-name="colon" unicode=":" horiz-adv-x="419" 
d="M342 684h-264v305h264v-305zM342 0h-264v307h264v-307z" />
    <glyph glyph-name="semicolon" unicode=";" horiz-adv-x="419" 
d="M342 684h-264v305h264v-305zM356 307l-159 -500l-142 33l23 467h278z" />
    <glyph glyph-name="less" unicode="&#x3c;" horiz-adv-x="774" 
d="M678 164l-604 454v177l604 454v-233l-412 -309l412 -312v-231z" />
    <glyph glyph-name="equal" unicode="=" horiz-adv-x="999" 
d="M881 844h-766v190h766v-190zM881 385h-766v190h766v-190z" />
    <glyph glyph-name="greater" unicode="&#x3e;" horiz-adv-x="749" 
d="M676 618l-586 -454v221l387 320l-387 317v227l586 -454v-177z" />
    <glyph glyph-name="question" unicode="?" horiz-adv-x="837" 
d="M223 0v295h264v-295h-264zM434 621l-10 -148l-129 -31l-23 320l35 18q115 61 170 119.5t55 140.5q0 79 -44 126.5t-126 47.5q-138 0 -296 -137l-33 226q169 137 377 137q176 0 277 -99.5t101 -275.5q0 -158 -91.5 -264t-262.5 -180z" />
    <glyph glyph-name="at" unicode="@" horiz-adv-x="1400" 
d="M717 -279q-193 0 -338 94.5t-222 266t-77 397.5q0 341 173.5 552.5t451.5 211.5q125 0 235 -48t195.5 -140t135.5 -239.5t50 -332.5q0 -213 -60 -305t-180 -92q-75 0 -135.5 39t-89.5 100q-47 -63 -102 -101t-131 -38q-116 0 -192.5 97.5t-76.5 279.5q0 213 96 321.5
t259 108.5q143 0 278 -53v-504q0 -80 32.5 -122t84.5 -42q69 0 103 73.5t34 235.5q0 319 -151.5 504.5t-387.5 185.5q-114 0 -213 -47.5t-171.5 -134.5t-114 -218t-41.5 -290q0 -325 154.5 -507.5t404.5 -182.5q190 0 338 96l18 -69q-70 -44 -165 -70.5t-195 -26.5zM668 256
q63 0 125 96v363q-41 18 -91 18q-72 0 -111.5 -65t-39.5 -193q0 -108 32 -163.5t85 -55.5z" />
    <glyph glyph-name="A" unicode="A" horiz-adv-x="1071" 
d="M1065 35l-262 -47l-92 372h-355l-86 -360h-258l383 1417h297zM664 573l-129 537l-129 -537h258z" />
    <glyph glyph-name="B" unicode="B" horiz-adv-x="974" 
d="M938 408q0 -196 -135.5 -302t-360.5 -106h-338v1413h345q215 0 329.5 -95.5t114.5 -260.5q0 -108 -50.5 -186t-140.5 -117q236 -86 236 -346zM655 1024q0 85 -49.5 135.5t-161.5 50.5h-92v-381h88q106 0 160.5 53t54.5 142zM696 420q0 221 -258 221h-86v-440h92
q124 0 188 58t64 161z" />
    <glyph glyph-name="C" unicode="C" horiz-adv-x="940" 
d="M903 78q-159 -103 -330 -103q-170 0 -287 93t-172 254.5t-55 382.5q0 219 56 382t173 257t283 94q176 0 310 -88l-37 -236q-69 53 -124.5 75.5t-127.5 22.5q-132 0 -200 -134.5t-68 -370.5q0 -239 71.5 -372.5t214.5 -133.5q65 0 123.5 25.5t132.5 82.5z" />
    <glyph glyph-name="D" unicode="D" horiz-adv-x="1089" 
d="M1028 709q0 -339 -154 -524t-466 -185h-304v1413h304q316 0 468 -182t152 -522zM764 707q0 252 -91 371.5t-255 119.5h-53v-981h49q350 0 350 490z" />
    <glyph glyph-name="E" unicode="E" horiz-adv-x="858" 
d="M809 0h-705v1413h684v-223h-423v-340h315l39 -227h-354v-400h444v-223z" />
    <glyph glyph-name="F" unicode="F" horiz-adv-x="802" 
d="M762 1184h-395v-365h284l39 -231h-323v-588h-263v1413h658v-229z" />
    <glyph glyph-name="G" unicode="G" horiz-adv-x="1079" 
d="M995 90q-186 -117 -422 -117q-172 0 -289 94t-171 255.5t-54 382.5q0 167 33.5 301t99 231.5t169.5 150t239 52.5q199 0 358 -97l-38 -239q-67 53 -149.5 83t-164.5 30q-137 0 -209.5 -135t-72.5 -375q0 -153 26 -264.5t88.5 -180.5t157.5 -69q106 0 158 38v347h-179
l-32 208h452v-696z" />
    <glyph glyph-name="H" unicode="H" horiz-adv-x="1101" 
d="M995 0h-262v623h-366v-623h-263v1413h263v-557h366v557h262v-1413z" />
    <glyph glyph-name="I" unicode="I" horiz-adv-x="485" 
d="M373 0h-262v1413h262v-1413z" />
    <glyph glyph-name="J" unicode="J" horiz-adv-x="653" 
d="M551 352q0 -190 -92.5 -278t-270.5 -88q-87 0 -135 10l-37 231q55 -12 117 -12q78 0 118 38t40 126v1034h260v-1061z" />
    <glyph glyph-name="K" unicode="K" horiz-adv-x="997" 
d="M1004 35l-256 -49l-381 692v-678h-263v1413h263v-612l327 612h269l-367 -649z" />
    <glyph glyph-name="L" unicode="L" horiz-adv-x="772" 
d="M764 0h-660v1413h263v-1180h360z" />
    <glyph glyph-name="M" unicode="M" horiz-adv-x="1431" 
d="M1362 0h-248l-45 1051l-240 -1055h-243l-244 1055l-41 -1051h-229l61 1413h336l246 -1048l246 1048h335z" />
    <glyph glyph-name="N" unicode="N" horiz-adv-x="1097" 
d="M991 0h-207l-440 897v-897h-240v1413h248l402 -858v858h237v-1413z" />
    <glyph glyph-name="O" unicode="O" horiz-adv-x="1144" 
d="M1085 709q0 -219 -56 -382.5t-173.5 -258.5t-284.5 -95q-169 0 -285.5 94.5t-171.5 256.5t-55 381t56 382.5t173 258t285 94.5t284.5 -94t172 -256t55.5 -381zM821 707q0 157 -25 269.5t-81.5 178.5t-141.5 66q-249 0 -249 -514t249 -514q86 0 142.5 66t81 178.5
t24.5 269.5z" />
    <glyph glyph-name="P" unicode="P" horiz-adv-x="931" 
d="M913 973q0 -216 -132 -333t-365 -120h-51v-520h-261v1413h328q225 0 353 -114t128 -326zM664 969q0 233 -238 233h-64v-469h58q244 0 244 236z" />
    <glyph glyph-name="Q" unicode="Q" horiz-adv-x="1144" 
d="M1085 709q0 -243 -73 -420.5t-209 -241.5l264 -98l-51 -221l-588 262q-192 84 -280.5 259t-88.5 456q0 219 56 382.5t173 258t285 94.5t284.5 -94t172 -256t55.5 -381zM821 707q0 156 -25.5 269t-82 179t-140.5 66q-249 0 -249 -514q0 -117 14 -210.5t43.5 -164
t78 -108.5t113.5 -38q125 0 186.5 140.5t61.5 380.5z" />
    <glyph glyph-name="R" unicode="R" horiz-adv-x="991" 
d="M729 -14l-307 573h-62v-559h-256v1413h332q217 0 346 -110t129 -308q0 -142 -64.5 -239t-182.5 -142l319 -583zM358 750h60q119 0 181.5 58t62.5 171q0 221 -238 221h-66v-450z" />
    <glyph glyph-name="S" unicode="S" horiz-adv-x="872" 
d="M827 371q0 -179 -111.5 -283t-297.5 -104q-203 0 -361 82l37 231q169 -96 309 -96q77 0 121.5 39t44.5 108q0 74 -45.5 133t-161.5 142q-56 40 -92 68.5t-77.5 71t-65 82t-39.5 93.5t-16 115q0 167 105.5 272t281.5 105q95 0 161.5 -16t131.5 -50l-37 -236
q-122 84 -242 84q-69 0 -106 -39t-37 -96q0 -67 45.5 -120t156.5 -128q72 -52 120 -94.5t91 -98t63.5 -121t20.5 -144.5z" />
    <glyph glyph-name="T" unicode="T" horiz-adv-x="946" 
d="M932 1182h-332v-1182h-262v1182h-311v231h866z" />
    <glyph glyph-name="U" unicode="U" horiz-adv-x="1083" 
d="M987 440q0 -223 -116 -344t-332 -121q-222 0 -333.5 119.5t-111.5 339.5v979h262v-975q0 -243 185 -243q186 0 186 241v977h260v-973z" />
    <glyph glyph-name="V" unicode="V" horiz-adv-x="1062" 
d="M1042 1413l-374 -1417h-291l-365 1380l269 49l249 -1099l248 1087h264z" />
    <glyph glyph-name="W" unicode="W" horiz-adv-x="1564" 
d="M1554 1413l-297 -1413h-264l-215 1047l-209 -1047h-260l-291 1380l261 45l174 -1028l196 1016h273l204 -1016l177 1016h251z" />
    <glyph glyph-name="X" unicode="X" horiz-adv-x="1017" 
d="M750 -14l-240 516l-234 -502h-270l359 725l-332 657l266 45l215 -466l207 452h270l-334 -674l361 -710z" />
    <glyph glyph-name="Y" unicode="Y" horiz-adv-x="1030" 
d="M1036 1413l-397 -885v-528h-260v526l-383 856l274 43l248 -626l244 614h274z" />
    <glyph glyph-name="Z" unicode="Z" horiz-adv-x="929" 
d="M891 0h-838v199l533 999h-469l-35 215h801v-199l-531 -999h508z" />
    <glyph glyph-name="bracketleft" unicode="[" horiz-adv-x="751" 
d="M690 -213h-555v1626h545v-162h-324v-1302h306z" />
    <glyph glyph-name="backslash" unicode="\" horiz-adv-x="684" 
d="M741 -213l-186 -41l-557 1645l188 41z" />
    <glyph glyph-name="bracketright" unicode="]" horiz-adv-x="751" 
d="M614 -213h-544v162h323v1304h-303l-29 160h553v-1626z" />
    <glyph glyph-name="asciicircum" unicode="^" horiz-adv-x="929" 
d="M774 1141l-141 -29l-168 141l-162 -133h-156l205 295h230z" />
    <glyph glyph-name="underscore" unicode="_" 
d="M745 -207h-747v137h747v-137z" />
    <glyph glyph-name="grave" unicode="`" 
d="M561 1110h-158l-245 254l282 55z" />
    <glyph glyph-name="a" unicode="a" horiz-adv-x="808" 
d="M731 0h-194l-17 100q-117 -120 -248 -120q-106 0 -171.5 70t-65.5 202q0 165 119.5 257t341.5 126v47q0 73 -31 105t-96 32q-98 0 -242 -80l-31 193q173 78 328 78q158 0 232.5 -75.5t74.5 -240.5v-694zM496 242v245q-126 -25 -182 -81.5t-56 -131.5q0 -52 24 -82t64 -30
q73 0 150 80z" />
    <glyph glyph-name="b" unicode="b" horiz-adv-x="901" 
d="M852 528q0 -273 -117 -406.5t-319 -133.5q-166 0 -334 61v1393l237 37v-566q93 97 218 97q143 0 229 -122t86 -360zM618 510q0 148 -42.5 218.5t-110.5 70.5q-70 0 -146 -86v-506q65 -21 103 -21q92 0 144 79.5t52 244.5z" />
    <glyph glyph-name="c" unicode="c" 
d="M700 61q-100 -79 -254 -79q-191 0 -296 135t-105 377q0 244 107.5 380t296.5 136q141 0 243 -66l-35 -215q-52 39 -93.5 55.5t-94.5 16.5q-92 0 -140 -81.5t-48 -223.5q0 -146 51.5 -228t152.5 -82q49 0 89 16t98 58z" />
    <glyph glyph-name="d" unicode="d" horiz-adv-x="901" 
d="M819 0h-194l-17 102q-105 -122 -237 -122q-141 0 -230.5 122.5t-89.5 358.5q0 136 31 241.5t86 169t124.5 95.5t151.5 32q80 0 138 -22v465l237 37v-1479zM582 276v502q-52 27 -103 27q-90 0 -142 -80.5t-52 -245.5q0 -147 42 -216.5t113 -69.5q72 0 142 83z" />
    <glyph glyph-name="e" unicode="e" horiz-adv-x="833" 
d="M784 514q0 -66 -2 -80h-501q11 -128 62 -198t142 -70q133 0 269 94l30 -184q-60 -43 -146.5 -69.5t-184.5 -26.5q-195 0 -301.5 134t-106.5 382q0 147 42.5 261.5t130 183.5t208.5 69q76 0 137 -25.5t101.5 -69.5t68 -107t39.5 -136t12 -158zM559 586q-3 118 -40 186
t-97 68q-58 0 -95 -66t-46 -188h278z" />
    <glyph glyph-name="f" unicode="f" horiz-adv-x="567" 
d="M569 1255q-61 9 -90 9q-57 0 -83.5 -29t-26.5 -92v-154h157l35 -201h-192v-788h-228v788h-123v201h123v189q0 141 76 211.5t207 70.5q68 0 113 -10z" />
    <glyph glyph-name="g" unicode="g" horiz-adv-x="899" 
d="M412 -373q-114 0 -204.5 26.5t-148 84.5t-57.5 141q0 69 43.5 131.5t122.5 108.5q-47 41 -47 98q0 82 98 158q-76 43 -120 118.5t-44 174.5q0 153 100.5 247.5t252.5 94.5q138 0 235 -84l207 78l31 -193l-150 -10q27 -66 27 -133q0 -152 -100 -246t-250 -94q-22 0 -62 4
q-10 -18 -10 -45q0 -17 20 -28.5t68 -22.5q249 -41 339.5 -102t90.5 -187q0 -98 -61.5 -172t-160.5 -111t-220 -37zM408 481q59 0 93 50.5t34 136.5t-35 137t-92 51q-61 0 -94 -50.5t-33 -137.5q0 -86 34 -136.5t93 -50.5zM434 -223q89 0 144 35t55 92q0 37 -22 60.5
t-84.5 44.5t-184.5 42q-30 5 -35 6q-86 -60 -86 -137q0 -69 54.5 -106t158.5 -37z" />
    <glyph glyph-name="h" unicode="h" horiz-adv-x="868" 
d="M793 0h-238v705q0 43 -20 68.5t-60 25.5q-76 0 -156 -80v-719h-237v1442l237 37v-574q122 105 242 105q113 0 172.5 -62.5t59.5 -177.5v-770z" />
    <glyph glyph-name="i" unicode="i" horiz-adv-x="421" 
d="M348 1286q0 -59 -39.5 -99t-97.5 -40q-59 0 -99 40.5t-40 98.5t40 98.5t99 40.5q58 0 97.5 -40t39.5 -99zM330 0h-238v989h238v-989z" />
    <glyph glyph-name="j" unicode="j" horiz-adv-x="421" 
d="M348 1286q0 -59 -39.5 -99t-97.5 -40q-59 0 -99 40.5t-40 98.5t40 98.5t99 40.5q58 0 97.5 -40t39.5 -99zM330 -86q0 -272 -277 -272q-64 0 -94 6l-35 194q31 -8 78 -8q90 0 90 98v1057h238v-1075z" />
    <glyph glyph-name="k" unicode="k" horiz-adv-x="800" 
d="M788 23l-241 -37l-234 506v-492h-231v1442l231 37v-895l203 405h244l-236 -430z" />
    <glyph glyph-name="l" unicode="l" horiz-adv-x="421" 
d="M328 0h-236v1442l236 37v-1479z" />
    <glyph glyph-name="m" unicode="m" horiz-adv-x="1318" 
d="M1241 0h-235v709q0 90 -80 90q-69 0 -148 -76v-723h-233v709q0 90 -80 90q-69 0 -148 -76v-723h-235v989h194l17 -104q136 125 262 125q156 0 203 -119q126 119 258 119q112 0 168.5 -61.5t56.5 -176.5v-772z" />
    <glyph glyph-name="n" unicode="n" horiz-adv-x="868" 
d="M793 0h-238v705q0 43 -20 68.5t-60 25.5q-76 0 -156 -80v-719h-237v989h194l19 -106q131 127 264 127q114 0 174 -62.5t60 -177.5v-770z" />
    <glyph glyph-name="o" unicode="o" horiz-adv-x="884" 
d="M842 494q0 -243 -110 -378.5t-292 -135.5q-181 0 -288 135t-107 379t107 380t288 136q183 0 292.5 -135.5t109.5 -380.5zM606 494q0 144 -43 231.5t-123 87.5q-79 0 -120 -86.5t-41 -232.5q0 -144 42 -231t119 -87q81 0 123.5 86t42.5 232z" />
    <glyph glyph-name="p" unicode="p" horiz-adv-x="901" 
d="M852 528q0 -137 -31 -242t-85.5 -168.5t-124 -95.5t-152.5 -32q-69 0 -140 22v-344l-237 -37v1358h194l19 -102q107 123 242 123q142 0 228.5 -122t86.5 -360zM618 510q0 148 -42.5 218.5t-110.5 70.5q-71 0 -146 -86v-502q49 -25 103 -25q92 0 144 79.5t52 244.5z" />
    <glyph glyph-name="q" unicode="q" horiz-adv-x="901" 
d="M819 -332l-237 -37v447q-94 -98 -211 -98q-141 0 -230.5 122.5t-89.5 358.5q0 274 116 407t320 133q167 0 332 -61v-1272zM582 276v504q-61 23 -103 23q-91 0 -142.5 -79.5t-51.5 -244.5q0 -146 42 -216t111 -70q74 0 144 83z" />
    <glyph glyph-name="r" unicode="r" horiz-adv-x="600" 
d="M584 770q-81 -6 -151.5 -45t-113.5 -96v-629h-237v989h194l23 -145q43 68 107 114t139 52z" />
    <glyph glyph-name="s" unicode="s" horiz-adv-x="720" 
d="M686 274q0 -132 -88.5 -213t-245.5 -81q-170 0 -315 86l33 204q165 -100 282 -100q54 0 84.5 25t30.5 65q0 43 -38 81t-124 79q-129 63 -190.5 131.5t-61.5 179.5q0 118 82.5 198.5t220.5 80.5q151 0 275 -62l-33 -200q-137 73 -233 73q-41 0 -67 -21.5t-26 -58.5
t35 -71.5t115 -73.5q134 -64 199 -136.5t65 -185.5z" />
    <glyph glyph-name="t" unicode="t" horiz-adv-x="606" 
d="M571 0q-66 -16 -143 -16q-148 0 -219.5 63t-71.5 217v524h-121v201h121v318l230 34v-352h168l30 -201h-198v-491q0 -54 23.5 -80.5t78.5 -26.5q41 0 72 7z" />
    <glyph glyph-name="u" unicode="u" horiz-adv-x="868" 
d="M786 0h-194l-17 106q-133 -126 -266 -126q-112 0 -171.5 62t-59.5 177v770h235v-706q0 -42 21 -66t63 -24q74 0 154 77v719h235v-989z" />
    <glyph glyph-name="v" unicode="v" horiz-adv-x="811" 
d="M805 989l-270 -993h-263l-268 977l244 31l164 -740l155 725h238z" />
    <glyph glyph-name="w" unicode="w" horiz-adv-x="1191" 
d="M1182 989l-240 -989h-221l-125 678l-129 -678h-217l-240 973l232 31l133 -685l119 670h225l119 -667l127 667h217z" />
    <glyph glyph-name="x" unicode="x" horiz-adv-x="817" 
d="M807 14l-240 -28l-164 340l-155 -326h-236l264 506l-245 467l237 31l146 -304l137 289h235l-247 -467z" />
    <glyph glyph-name="y" unicode="y" horiz-adv-x="819" 
d="M815 989l-301 -1061q-43 -153 -120 -219.5t-212 -66.5q-56 0 -96 6l-33 200q47 -12 94 -12q83 0 123 86l23 66l-289 985l244 31l170 -736l160 721h237z" />
    <glyph glyph-name="z" unicode="z" horiz-adv-x="747" 
d="M723 0h-690v172l393 625h-338l-33 192h643v-172l-395 -624h387z" />
    <glyph glyph-name="braceleft" unicode="{" horiz-adv-x="917" 
d="M854 -213h-250q-297 0 -297 262q0 47 13.5 141.5t13.5 141.5q0 188 -203 188h-47l-27 162h76q97 0 149 43.5t52 142.5q0 47 -13.5 138.5t-13.5 138.5q0 129 75 198.5t222 69.5h242v-162h-176q-131 0 -131 -121q0 -41 13 -130.5t13 -135.5q0 -116 -54 -176.5t-161 -85.5
v-4q107 -23 161 -84t54 -178q0 -45 -13 -134.5t-13 -129.5q0 -121 131 -121h159z" />
    <glyph glyph-name="bar" unicode="|" horiz-adv-x="454" 
d="M324 -350l-199 -31v1825l199 33v-1827z" />
    <glyph glyph-name="braceright" unicode="}" horiz-adv-x="917" 
d="M860 520h-74q-98 0 -150 -43.5t-52 -144.5q0 -47 13 -138t13 -139q0 -128 -75 -198t-222 -70h-239v164h174q66 0 99.5 31.5t33.5 89.5q0 40 -14.5 129.5t-14.5 134.5q0 116 54.5 177.5t160.5 84.5v4q-106 25 -160.5 85.5t-54.5 176.5q0 46 14.5 135.5t14.5 130.5
q0 58 -33.5 89.5t-99.5 31.5h-160l-25 162h250q297 0 297 -262q0 -47 -13 -141.5t-13 -141.5q0 -186 202 -186h50z" />
    <glyph glyph-name="asciitilde" unicode="~" 
d="M668 709q-28 -258 -162 -258q-52 0 -119 36q-15 8 -39.5 21t-35 18.5t-24.5 10t-24 4.5q-21 0 -33 -20.5t-24 -78.5l-129 29q15 137 54 198.5t106 61.5q54 0 139 -47q34 -18 48 -25t30 -12.5t28 -5.5q21 0 32.5 20t21.5 76z" />
    <glyph glyph-name="nbspace" unicode="&#xa0;" horiz-adv-x="190" 
 />
    <glyph glyph-name="exclamdown" unicode="&#xa1;" horiz-adv-x="487" 
d="M375 1116h-262v297h262v-297zM391 0h-297l78 938l139 31z" />
    <glyph glyph-name="cent" unicode="&#xa2;" horiz-adv-x="784" 
d="M463 190l-35 -213l-139 29l30 207q-123 43 -196.5 167.5t-73.5 321.5q0 248 118 383.5t308 135.5h4l35 211l139 -31l-30 -197q44 -12 112 -49l-33 -211q-62 46 -120 64l-99 -621h15v2q112 0 217 78l26 -197q-116 -80 -278 -80zM365 436l92 586q-85 -10 -131.5 -95.5
t-46.5 -217.5q0 -190 86 -273z" />
    <glyph glyph-name="sterling" unicode="&#xa3;" horiz-adv-x="937" 
d="M233 803l76 297q45 180 133.5 260t253.5 80q85 0 191 -25l-31 -215q-82 21 -139 21q-75 0 -116 -44t-64 -135q-58 -239 -60 -239h242l33 -197h-320l-96 -393h500l30 -213h-792v162l112 444h-114v197h161z" />
    <glyph glyph-name="currency" unicode="&#xa4;" horiz-adv-x="1073" 
d="M696 -27q-217 0 -343.5 132.5t-164.5 367.5h-139l-24 152h149q-2 25 -2 80q0 32 4 98h-141v149h158q45 228 171 358t332 130q184 0 314 -88l-39 -232q-73 55 -129.5 78t-132.5 23q-196 0 -256 -269h356l25 -149h-402q-4 -62 -4 -96q0 -13 1 -41t1 -41h391v-152h-370
q60 -280 282 -280q69 0 129.5 24.5t134.5 77.5l35 -219q-152 -103 -336 -103z" />
    <glyph glyph-name="yen" unicode="&#xa5;" horiz-adv-x="1024" 
d="M629 469v-145h272v-146h-272v-178h-248v178h-254l-21 146h275v145h-264v147h225l-344 766l266 45l250 -632l246 618h268l-362 -797h223l22 -147h-282z" />
    <glyph glyph-name="brokenbar" unicode="&#xa6;" horiz-adv-x="1024" 
d="M51 -410v2048h922v-2048h-922z" />
    <glyph glyph-name="section" unicode="&#xa7;" horiz-adv-x="925" 
d="M834 592l-181 31q11 37 11 67q0 43 -42 75t-151 66q-78 25 -129 48.5t-98 59t-69.5 85.5t-22.5 117q0 132 83 210.5t230 78.5q157 0 278 -62l-26 -199q-124 76 -246 76q-53 0 -81 -22.5t-28 -65.5t40 -70.5t145 -64.5q68 -22 111.5 -39.5t88 -42.5t69.5 -52.5t40.5 -66
t15.5 -86.5q0 -79 -38 -143zM469 -18q-158 0 -276 63l28 197q121 -76 242 -76q51 0 77.5 23.5t26.5 66.5q0 40 -40.5 69t-139.5 64q-71 24 -113.5 41.5t-89 43t-71 52t-40.5 64.5t-16 86q0 85 39 151l178 -32q-10 -30 -10 -72q0 -45 42 -76t157 -67q76 -24 127.5 -47.5
t97 -59t68 -86t22.5 -117.5q0 -131 -81.5 -209.5t-227.5 -78.5z" />
    <glyph glyph-name="dieresis" unicode="&#xa8;" 
d="M635 1116h-207v236h207v-236zM315 1116h-204v236h204v-236z" />
    <glyph glyph-name="copyright" unicode="&#xa9;" horiz-adv-x="1296" 
d="M1229 709q0 -217 -74 -385t-206 -259.5t-302 -91.5q-258 0 -418.5 202t-160.5 530q0 217 73 384.5t205.5 259t302.5 91.5t302 -91t205 -257.5t73 -382.5zM1143 707q0 304 -139.5 481.5t-354.5 177.5q-218 0 -356.5 -177t-138.5 -482t138.5 -482.5t356.5 -177.5
q216 0 355 177.5t139 482.5zM864 344q-89 -61 -196 -61q-150 0 -226.5 115t-76.5 313t78 316t225 118q104 0 184 -55l-23 -146q-44 33 -77 47.5t-72 14.5q-75 0 -114.5 -78t-39.5 -215q0 -138 41 -214.5t123 -76.5q66 0 152 63z" />
    <glyph glyph-name="ordfeminine" unicode="&#xaa;" horiz-adv-x="620" 
d="M535 760h-136l-10 61q-76 -76 -160 -76q-69 0 -112 46.5t-43 132.5q0 108 76 168.5t221 83.5v30q0 48 -17 65t-57 17q-78 0 -164 -49l-18 129q105 55 215 55q105 0 155 -50t50 -159v-454zM549 518h-457v129h436zM371 926v147q-82 -18 -116 -52t-34 -83q0 -66 55 -66
q47 0 95 54z" />
    <glyph glyph-name="guillemotleft" unicode="&#xab;" horiz-adv-x="970" 
d="M922 989l-215 -493l211 -471l-168 -39l-299 510l297 493h174zM506 989l-221 -493l209 -471l-168 -39l-297 510l295 493h182z" />
    <glyph glyph-name="logicalnot" unicode="&#xac;" horiz-adv-x="954" 
d="M870 623h-786v186h786v-186z" />
    <glyph glyph-name="registered" unicode="&#xae;" horiz-adv-x="954" 
d="M897 975q0 -189 -117.5 -311.5t-300.5 -122.5q-186 0 -303 121.5t-117 312.5q0 188 118 311t302 123t301 -122t117 -312zM831 975q0 169 -99.5 272t-252.5 103q-155 0 -254.5 -103t-99.5 -272q0 -170 99.5 -272.5t254.5 -102.5q154 0 253 102.5t99 272.5zM676 739
l-107 -18l-116 215h-15v-207h-104v522h127q85 0 134.5 -39.5t49.5 -113.5q0 -107 -90 -146zM543 1092q0 77 -84 77h-21v-157h19q86 0 86 80z" />
    <glyph glyph-name="macron" unicode="&#xaf;" 
d="M604 1147h-465v182h465v-182z" />
    <glyph glyph-name="degree" unicode="&#xb0;" horiz-adv-x="714" 
d="M649 1135q0 -127 -82.5 -208t-210.5 -81t-211.5 81t-83.5 208t83.5 211t211.5 84q127 0 210 -83.5t83 -211.5zM504 1137q0 64 -43 107.5t-105 43.5q-65 0 -106 -43t-41 -108q0 -68 40.5 -111t106.5 -43q62 0 105 43.5t43 110.5z" />
    <glyph glyph-name="plusminus" unicode="&#xb1;" horiz-adv-x="964" 
d="M954 305h-159v-305h-234v305h-524v164l446 954l217 -55l-415 -879h276v318l234 53v-371h159v-184z" />
    <glyph glyph-name="twosuperior" unicode="&#xb2;" horiz-adv-x="1024" 
d="M51 -410v2048h922v-2048h-922z" />
    <glyph glyph-name="threesuperior" unicode="&#xb3;" horiz-adv-x="1024" 
d="M51 -410v2048h922v-2048h-922z" />
    <glyph glyph-name="acute" unicode="&#xb4;" 
d="M594 1364l-244 -254h-157l120 309z" />
    <glyph glyph-name="mu" unicode="&#xb5;" horiz-adv-x="954" 
d="M727 326l-252 266l-252 -266l-121 125l256 262l-256 262l125 129l252 -268l252 268l121 -125l-256 -264l256 -260z" />
    <glyph glyph-name="paragraph" unicode="&#xb6;" horiz-adv-x="931" 
d="M825 0h-247v1208h-121v-278l-80 -398q-74 12 -136.5 42.5t-114 81.5t-81 130t-29.5 179q0 217 135 332.5t367 115.5h307v-1413z" />
    <glyph glyph-name="periodcentered" unicode="&#xb7;" horiz-adv-x="403" 
d="M332 510h-260v307h260v-307z" />
    <glyph glyph-name="cedilla" unicode="&#xb8;" 
d="M555 -145l-229 -217h-156l109 276z" />
    <glyph glyph-name="onesuperior" unicode="&#xb9;" horiz-adv-x="1024" 
d="M51 -410v2048h922v-2048h-922z" />
    <glyph glyph-name="ordmasculine" unicode="&#xba;" horiz-adv-x="638" 
d="M582 1083q0 -160 -72 -249t-193 -89q-122 0 -192 88.5t-70 249.5t70.5 250.5t193.5 89.5q119 0 191 -89.5t72 -250.5zM557 518h-465v129h445zM420 1083q0 94 -25.5 149.5t-77.5 55.5q-102 0 -102 -205q0 -94 26 -148t78 -54q101 0 101 202z" />
    <glyph glyph-name="guillemotright" unicode="&#xbb;" horiz-adv-x="970" 
d="M942 496l-293 -494h-184l221 494l-209 471l166 39zM520 496l-297 -494h-174l217 494l-213 471l170 39z" />
    <glyph glyph-name="onequarter" unicode="&#xbc;" horiz-adv-x="1024" 
d="M51 -410v2048h922v-2048h-922z" />
    <glyph glyph-name="onehalf" unicode="&#xbd;" horiz-adv-x="1024" 
d="M51 -410v2048h922v-2048h-922z" />
    <glyph glyph-name="threequarters" unicode="&#xbe;" horiz-adv-x="1024" 
d="M51 -410v2048h922v-2048h-922z" />
    <glyph glyph-name="questiondown" unicode="&#xbf;" horiz-adv-x="837" 
d="M614 1413v-295h-264v295h264zM401 793l13 147l127 31l24 -320l-35 -18q-117 -62 -171 -119.5t-54 -140.5q0 -78 44 -126t126 -48q136 0 297 137l31 -225q-166 -138 -375 -138q-177 0 -278 99t-101 276q0 108 46 194t120.5 144t185.5 107z" />
    <glyph glyph-name="Agrave" unicode="&#xc0;" horiz-adv-x="1071" 
d="M1065 35l-262 -47l-92 372h-355l-86 -360h-258l383 1417h297zM664 573l-129 537l-129 -537h258zM618 1501h-157l-246 254l283 55z" />
    <glyph glyph-name="Aacute" unicode="&#xc1;" horiz-adv-x="1071" 
d="M870 1755l-243 -254h-158l121 309zM1065 35l-262 -47l-92 372h-355l-86 -360h-258l383 1417h297zM664 573l-129 537l-129 -537h258z" />
    <glyph glyph-name="Acircumflex" unicode="&#xc2;" horiz-adv-x="1071" 
d="M1065 35l-262 -47l-92 372h-355l-86 -360h-258l383 1417h297zM664 573l-129 537l-129 -537h258zM811 1501l-141 -28l-123 141l-111 -133h-157l176 297h190z" />
    <glyph glyph-name="Atilde" unicode="&#xc3;" horiz-adv-x="1071" 
d="M1065 35l-262 -47l-92 372h-355l-86 -360h-258l383 1417h297zM664 573l-129 537l-129 -537h258zM836 1765q-15 -136 -55.5 -198t-106.5 -62q-50 0 -119 37q-13 7 -32.5 17t-29.5 15t-22.5 11t-21.5 8t-17 2q-21 0 -33 -20.5t-24 -77.5l-129 29q15 137 54 198.5t106 61.5
q54 0 139 -47q34 -18 48 -25t30 -12.5t28 -5.5q21 0 32.5 20t21.5 76z" />
    <glyph glyph-name="Adieresis" unicode="&#xc4;" horiz-adv-x="1071" 
d="M1065 35l-262 -47l-92 372h-355l-86 -360h-258l383 1417h297zM664 573l-129 537l-129 -537h258zM805 1507h-207v236h207v-236zM485 1507h-204v236h204v-236z" />
    <glyph glyph-name="Aring" unicode="&#xc5;" horiz-adv-x="1071" 
d="M1065 35l-262 -47l-92 372h-355l-86 -360h-258l383 1417h297zM664 573l-129 537l-129 -537h258zM752 1696q0 -86 -58 -141.5t-153 -55.5q-98 0 -155.5 55t-57.5 142q0 86 58 142t155 56q95 0 153 -56.5t58 -141.5zM627 1696q0 44 -23 73t-61 29q-42 0 -67 -29t-25 -73
q0 -45 25 -73t67 -28q38 0 61 28t23 73z" />
    <glyph glyph-name="AE" unicode="&#xc6;" horiz-adv-x="1472" 
d="M1423 0h-702v360h-318l-137 -360h-266l557 1413h848v-223h-426v-340h315l39 -227h-354v-400h444v-223zM721 573v660l-246 -660h246z" />
    <glyph glyph-name="Ccedilla" unicode="&#xc7;" horiz-adv-x="940" 
d="M903 78q-159 -103 -330 -103q-170 0 -287 93t-172 254.5t-55 382.5q0 219 56 382t173 257t283 94q176 0 310 -88l-37 -236q-69 53 -124.5 75.5t-127.5 22.5q-132 0 -200 -134.5t-68 -370.5q0 -239 71.5 -372.5t214.5 -133.5q65 0 123.5 25.5t132.5 82.5zM715 -145
l-230 -217h-155l108 276z" />
    <glyph glyph-name="Egrave" unicode="&#xc8;" horiz-adv-x="858" 
d="M809 0h-705v1413h684v-223h-423v-340h315l39 -227h-354v-400h444v-223zM561 1501h-158l-245 254l282 55z" />
    <glyph glyph-name="Eacute" unicode="&#xc9;" horiz-adv-x="858" 
d="M809 0h-705v1413h684v-223h-423v-340h315l39 -227h-354v-400h444v-223zM745 1755l-243 -254h-158l121 309z" />
    <glyph glyph-name="Ecircumflex" unicode="&#xca;" horiz-adv-x="858" 
d="M809 0h-705v1413h684v-223h-423v-340h315l39 -227h-354v-400h444v-223zM715 1522l-142 -29l-122 141l-111 -133h-158l176 297h191z" />
    <glyph glyph-name="Edieresis" unicode="&#xcb;" horiz-adv-x="858" 
d="M809 0h-705v1413h684v-223h-423v-340h315l39 -227h-354v-400h444v-223zM707 1507h-207v236h207v-236zM387 1507h-205v236h205v-236z" />
    <glyph glyph-name="Igrave" unicode="&#xcc;" horiz-adv-x="485" 
d="M373 0h-262v1413h262v-1413zM319 1501h-157l-246 254l283 55z" />
    <glyph glyph-name="Iacute" unicode="&#xcd;" horiz-adv-x="485" 
d="M571 1755l-243 -254h-158l121 309zM373 0h-262v1413h262v-1413z" />
    <glyph glyph-name="Icircumflex" unicode="&#xce;" horiz-adv-x="485" 
d="M373 0h-262v1413h262v-1413zM510 1503l-141 -28l-123 141l-111 -133h-158l177 297h190z" />
    <glyph glyph-name="Idieresis" unicode="&#xcf;" horiz-adv-x="485" 
d="M373 0h-262v1413h262v-1413zM508 1507h-207v236h207v-236zM188 1507h-204v236h204v-236z" />
    <glyph glyph-name="Eth" unicode="&#xd0;" horiz-adv-x="1132" 
d="M1073 709q0 -339 -154 -524t-466 -185h-303v614h-109l-37 234h146v565h303q316 0 468 -182t152 -522zM807 707q0 252 -90.5 371.5t-253.5 119.5h-53v-352h196v-232h-196v-397h49q348 0 348 490z" />
    <glyph glyph-name="Ntilde" unicode="&#xd1;" horiz-adv-x="1097" 
d="M991 0h-207l-440 897v-897h-240v1413h248l402 -858v858h237v-1413zM854 1747q-15 -136 -55.5 -198t-106.5 -62q-50 0 -119 37q-15 7 -39.5 20.5t-34.5 18.5t-24 9.5t-24 4.5q-21 0 -33.5 -20.5t-24.5 -77.5l-129 28q15 137 54 198.5t106 61.5q54 0 139 -47
q82 -43 107 -43q20 0 31.5 20t21.5 77z" />
    <glyph glyph-name="Ograve" unicode="&#xd2;" horiz-adv-x="1144" 
d="M1085 709q0 -219 -56 -382.5t-173.5 -258.5t-284.5 -95q-169 0 -285.5 94.5t-171.5 256.5t-55 381t56 382.5t173 258t285 94.5t284.5 -94t172 -256t55.5 -381zM821 707q0 157 -25 269.5t-81.5 178.5t-141.5 66q-249 0 -249 -514t249 -514q86 0 142.5 66t81 178.5
t24.5 269.5zM655 1518h-157l-246 254l283 55z" />
    <glyph glyph-name="Oacute" unicode="&#xd3;" horiz-adv-x="1144" 
d="M895 1774l-244 -254h-157l120 309zM1085 709q0 -219 -56 -382.5t-173.5 -258.5t-284.5 -95q-169 0 -285.5 94.5t-171.5 256.5t-55 381t56 382.5t173 258t285 94.5t284.5 -94t172 -256t55.5 -381zM821 707q0 157 -25 269.5t-81.5 178.5t-141.5 66q-249 0 -249 -514
t249 -514q86 0 142.5 66t81 178.5t24.5 269.5z" />
    <glyph glyph-name="Ocircumflex" unicode="&#xd4;" horiz-adv-x="1144" 
d="M1085 709q0 -219 -56 -382.5t-173.5 -258.5t-284.5 -95q-169 0 -285.5 94.5t-171.5 256.5t-55 381t56 382.5t173 258t285 94.5t284.5 -94t172 -256t55.5 -381zM821 707q0 157 -25 269.5t-81.5 178.5t-141.5 66q-249 0 -249 -514t249 -514q86 0 142.5 66t81 178.5
t24.5 269.5zM838 1530l-142 -29l-123 141l-110 -133h-158l176 297h191z" />
    <glyph glyph-name="Otilde" unicode="&#xd5;" horiz-adv-x="1144" 
d="M1085 709q0 -219 -56 -382.5t-173.5 -258.5t-284.5 -95q-169 0 -285.5 94.5t-171.5 256.5t-55 381t56 382.5t173 258t285 94.5t284.5 -94t172 -256t55.5 -381zM821 707q0 157 -25 269.5t-81.5 178.5t-141.5 66q-249 0 -249 -514t249 -514q86 0 142.5 66t81 178.5
t24.5 269.5zM862 1790q-15 -136 -55.5 -198t-106.5 -62q-49 0 -118 37q-13 7 -32.5 17t-29.5 15t-22.5 11t-21.5 8t-17 2q-21 0 -33.5 -20.5t-24.5 -77.5l-129 28q15 137 54 198.5t106 61.5q54 0 139 -47q82 -43 107 -43q20 0 31.5 20t21.5 77z" />
    <glyph glyph-name="Odieresis" unicode="&#xd6;" horiz-adv-x="1144" 
d="M1085 709q0 -219 -56 -382.5t-173.5 -258.5t-284.5 -95q-169 0 -285.5 94.5t-171.5 256.5t-55 381t56 382.5t173 258t285 94.5t284.5 -94t172 -256t55.5 -381zM821 707q0 157 -25 269.5t-81.5 178.5t-141.5 66q-249 0 -249 -514t249 -514q86 0 142.5 66t81 178.5
t24.5 269.5zM840 1526h-207v235h207v-235zM520 1526h-205v235h205v-235z" />
    <glyph glyph-name="multiply" unicode="&#xd7;" horiz-adv-x="1024" 
d="M51 -410v2048h922v-2048h-922z" />
    <glyph glyph-name="Oslash" unicode="&#xd8;" horiz-adv-x="1144" 
d="M1128 1395l-137 -211q94 -184 94 -475q0 -219 -56 -382.5t-173.5 -258.5t-284.5 -95q-175 0 -301 107l-61 -98l-170 41l123 194q-103 184 -103 488q0 219 56 382.5t173 258t285 94.5q187 0 312 -119l69 111zM754 1106q-66 119 -181 119q-131 0 -193.5 -138t-62.5 -380
q0 -140 27 -248zM827 707q0 139 -22 233l-406 -647q65 -105 174 -105q127 0 190.5 139.5t63.5 379.5z" />
    <glyph glyph-name="Ugrave" unicode="&#xd9;" horiz-adv-x="1083" 
d="M987 440q0 -223 -116 -344t-332 -121q-222 0 -333.5 119.5t-111.5 339.5v979h262v-975q0 -243 185 -243q186 0 186 241v977h260v-973zM649 1473h-157l-246 253l282 56z" />
    <glyph glyph-name="Uacute" unicode="&#xda;" horiz-adv-x="1083" 
d="M852 1726l-244 -253h-157l120 309zM987 440q0 -223 -116 -344t-332 -121q-222 0 -333.5 119.5t-111.5 339.5v979h262v-975q0 -243 185 -243q186 0 186 241v977h260v-973z" />
    <glyph glyph-name="Ucircumflex" unicode="&#xdb;" horiz-adv-x="1083" 
d="M987 440q0 -223 -116 -344t-332 -121q-222 0 -333.5 119.5t-111.5 339.5v979h262v-975q0 -243 185 -243q186 0 186 241v977h260v-973zM815 1503l-141 -28l-123 141l-111 -133h-157l176 297h190z" />
    <glyph glyph-name="Udieresis" unicode="&#xdc;" horiz-adv-x="1083" 
d="M987 440q0 -223 -116 -344t-332 -121q-222 0 -333.5 119.5t-111.5 339.5v979h262v-975q0 -243 185 -243q186 0 186 241v977h260v-973zM809 1489h-207v235h207v-235zM489 1489h-204v235h204v-235z" />
    <glyph glyph-name="Yacute" unicode="&#xdd;" horiz-adv-x="1030" 
d="M1036 1413l-397 -885v-528h-260v526l-383 856l274 43l248 -626l244 614h274zM829 1718l-243 -254h-158l121 310z" />
    <glyph glyph-name="Thorn" unicode="&#xde;" horiz-adv-x="952" 
d="M913 731q0 -218 -133 -335t-364 -117h-51v-279h-261v1413h261v-242h69q223 0 351 -114.5t128 -325.5zM664 727q0 231 -238 231h-64v-469h58q244 0 244 238z" />
    <glyph glyph-name="germandbls" unicode="&#xdf;" horiz-adv-x="1048" 
d="M1020 283q0 -152 -80.5 -226.5t-222.5 -74.5q-61 0 -133.5 19.5t-114.5 43.5l31 191q97 -62 184 -62q107 0 107 107q0 83 -76 161.5t-217 137.5l-23 176q127 189 127 358q0 75 -29.5 116.5t-85.5 41.5q-43 0 -70 -27.5t-35.5 -64t-8.5 -82.5v-1098h-232v786h-123v203h123
v86q0 190 90.5 288.5t251.5 98.5q171 0 259.5 -87t88.5 -249q0 -203 -157 -401q346 -179 346 -442z" />
    <glyph glyph-name="agrave" unicode="&#xe0;" horiz-adv-x="808" 
d="M731 0h-194l-17 100q-117 -120 -248 -120q-106 0 -171.5 70t-65.5 202q0 165 119.5 257t341.5 126v47q0 73 -31 105t-96 32q-98 0 -242 -80l-31 193q173 78 328 78q158 0 232.5 -75.5t74.5 -240.5v-694zM496 242v245q-126 -25 -182 -81.5t-56 -131.5q0 -52 24 -82t64 -30
q73 0 150 80zM512 1073h-158l-245 254l282 55z" />
    <glyph glyph-name="aacute" unicode="&#xe1;" horiz-adv-x="808" 
d="M731 0h-194l-17 100q-117 -120 -248 -120q-106 0 -171.5 70t-65.5 202q0 165 119.5 257t341.5 126v47q0 73 -31 105t-96 32q-98 0 -242 -80l-31 193q173 78 328 78q158 0 232.5 -75.5t74.5 -240.5v-694zM496 242v245q-126 -25 -182 -81.5t-56 -131.5q0 -52 24 -82t64 -30
q73 0 150 80zM711 1327l-244 -254h-158l121 309z" />
    <glyph glyph-name="acircumflex" unicode="&#xe2;" horiz-adv-x="808" 
d="M731 0h-194l-17 100q-117 -120 -248 -120q-106 0 -171.5 70t-65.5 202q0 165 119.5 257t341.5 126v47q0 73 -31 105t-96 32q-98 0 -242 -80l-31 193q173 78 328 78q158 0 232.5 -75.5t74.5 -240.5v-694zM496 242v245q-126 -25 -182 -81.5t-56 -131.5q0 -52 24 -82t64 -30
q73 0 150 80zM674 1096l-142 -29l-122 141l-111 -133h-158l176 297h191z" />
    <glyph glyph-name="atilde" unicode="&#xe3;" horiz-adv-x="808" 
d="M731 0h-194l-17 100q-117 -120 -248 -120q-106 0 -171.5 70t-65.5 202q0 165 119.5 257t341.5 126v47q0 73 -31 105t-96 32q-98 0 -242 -80l-31 193q173 78 328 78q158 0 232.5 -75.5t74.5 -240.5v-694zM496 242v245q-126 -25 -182 -81.5t-56 -131.5q0 -52 24 -82t64 -30
q73 0 150 80zM705 1337q-15 -136 -55.5 -198t-106.5 -62q-50 0 -119 37q-13 7 -32.5 17t-29.5 15t-22.5 11t-21.5 8t-17 2q-21 0 -33 -20.5t-24 -77.5l-129 29q15 137 53.5 198.5t105.5 61.5q55 0 140 -47q34 -18 48 -25t30 -12.5t28 -5.5q20 0 31.5 20t21.5 76z" />
    <glyph glyph-name="adieresis" unicode="&#xe4;" horiz-adv-x="808" 
d="M731 0h-194l-17 100q-117 -120 -248 -120q-106 0 -171.5 70t-65.5 202q0 165 119.5 257t341.5 126v47q0 73 -31 105t-96 32q-98 0 -242 -80l-31 193q173 78 328 78q158 0 232.5 -75.5t74.5 -240.5v-694zM496 242v245q-126 -25 -182 -81.5t-56 -131.5q0 -52 24 -82t64 -30
q73 0 150 80zM676 1081h-207v236h207v-236zM356 1081h-204v236h204v-236z" />
    <glyph glyph-name="aring" unicode="&#xe5;" horiz-adv-x="808" 
d="M731 0h-194l-17 100q-117 -120 -248 -120q-106 0 -171.5 70t-65.5 202q0 165 119.5 257t341.5 126v47q0 73 -31 105t-96 32q-98 0 -242 -80l-31 193q173 78 328 78q158 0 232.5 -75.5t74.5 -240.5v-694zM496 242v245q-126 -25 -182 -81.5t-56 -131.5q0 -52 24 -82t64 -30
q73 0 150 80zM618 1266q0 -86 -57.5 -141.5t-152.5 -55.5q-98 0 -155.5 55t-57.5 142q0 86 58 142t155 56q95 0 152.5 -56.5t57.5 -141.5zM494 1266q0 44 -23 73t-61 29q-42 0 -67.5 -29t-25.5 -73q0 -45 25.5 -73t67.5 -28q38 0 61 28t23 73z" />
    <glyph glyph-name="ae" unicode="&#xe6;" horiz-adv-x="1269" 
d="M1223 522q0 -13 -1 -47.5t-1 -40.5h-504q11 -127 63 -197.5t144 -70.5q130 0 266 94l31 -184q-133 -96 -332 -96q-196 0 -303 137q-131 -137 -301 -137q-110 0 -180 69.5t-70 202.5q0 165 119.5 257t341.5 126v47q0 73 -31 105t-94 32q-102 0 -244 -80l-29 189
q167 82 324 82q161 0 229 -107q90 107 223 107q119 0 199 -66.5t115 -173.5t35 -248zM1010 586q-3 118 -40.5 186t-97.5 68q-59 0 -96.5 -66t-46.5 -188h281zM520 250q-33 81 -37 231v4q-225 -58 -225 -209q0 -54 25 -84t69 -30q41 0 86 24.5t82 63.5z" />
    <glyph glyph-name="ccedilla" unicode="&#xe7;" 
d="M700 61q-100 -79 -254 -79q-191 0 -296 135t-105 377q0 244 107.5 380t296.5 136q141 0 243 -66l-35 -215q-52 39 -93.5 55.5t-94.5 16.5q-92 0 -140 -81.5t-48 -223.5q0 -146 51.5 -228t152.5 -82q49 0 89 16t98 58zM592 -127l-230 -217h-155l108 276z" />
    <glyph glyph-name="egrave" unicode="&#xe8;" horiz-adv-x="833" 
d="M784 514q0 -66 -2 -80h-501q11 -128 62 -198t142 -70q133 0 269 94l30 -184q-60 -43 -146.5 -69.5t-184.5 -26.5q-195 0 -301.5 134t-106.5 382q0 147 42.5 261.5t130 183.5t208.5 69q76 0 137 -25.5t101.5 -69.5t68 -107t39.5 -136t12 -158zM559 586q-3 118 -40 186
t-97 68q-58 0 -95 -66t-46 -188h278zM518 1073h-158l-245 254l282 55z" />
    <glyph glyph-name="eacute" unicode="&#xe9;" horiz-adv-x="833" 
d="M784 514q0 -66 -2 -80h-501q11 -128 62 -198t142 -70q133 0 269 94l30 -184q-60 -43 -146.5 -69.5t-184.5 -26.5q-195 0 -301.5 134t-106.5 382q0 147 42.5 261.5t130 183.5t208.5 69q76 0 137 -25.5t101.5 -69.5t68 -107t39.5 -136t12 -158zM559 586q-3 118 -40 186
t-97 68q-58 0 -95 -66t-46 -188h278zM723 1327l-244 -254h-157l120 309z" />
    <glyph glyph-name="ecircumflex" unicode="&#xea;" horiz-adv-x="833" 
d="M784 514q0 -66 -2 -80h-501q11 -128 62 -198t142 -70q133 0 269 94l30 -184q-60 -43 -146.5 -69.5t-184.5 -26.5q-195 0 -301.5 134t-106.5 382q0 147 42.5 261.5t130 183.5t208.5 69q76 0 137 -25.5t101.5 -69.5t68 -107t39.5 -136t12 -158zM559 586q-3 118 -40 186
t-97 68q-58 0 -95 -66t-46 -188h278zM684 1094l-141 -29l-123 141l-111 -133h-157l176 297h190z" />
    <glyph glyph-name="edieresis" unicode="&#xeb;" horiz-adv-x="833" 
d="M784 514q0 -66 -2 -80h-501q11 -128 62 -198t142 -70q133 0 269 94l30 -184q-60 -43 -146.5 -69.5t-184.5 -26.5q-195 0 -301.5 134t-106.5 382q0 147 42.5 261.5t130 183.5t208.5 69q76 0 137 -25.5t101.5 -69.5t68 -107t39.5 -136t12 -158zM559 586q-3 118 -40 186
t-97 68q-58 0 -95 -66t-46 -188h278zM684 1079h-207v236h207v-236zM365 1079h-205v236h205v-236z" />
    <glyph glyph-name="igrave" unicode="&#xec;" horiz-adv-x="421" 
d="M330 0h-238v989h238v-989zM283 1073h-158l-246 254l283 55z" />
    <glyph glyph-name="iacute" unicode="&#xed;" horiz-adv-x="421" 
d="M330 0h-238v989h238v-989zM537 1327l-244 -254h-158l121 309z" />
    <glyph glyph-name="icircumflex" unicode="&#xee;" horiz-adv-x="421" 
d="M330 0h-238v989h238v-989zM473 1094l-141 -29l-123 141l-111 -133h-157l176 297h190z" />
    <glyph glyph-name="idieresis" unicode="&#xef;" horiz-adv-x="421" 
d="M330 0h-238v989h238v-989zM475 1079h-207v236h207v-236zM156 1079h-205v236h205v-236z" />
    <glyph glyph-name="eth" unicode="&#xf0;" horiz-adv-x="905" 
d="M848 635q0 -405 -156 -561q-90 -94 -254 -94q-167 0 -277 124t-110 345q0 212 94 346.5t250 134.5q116 0 203 -78q-21 154 -121 260l-57 -82h-160l109 168q-44 33 -154 78l33 203q124 -36 233 -105l66 105l155 -33l-106 -158q252 -231 252 -653zM612 670q-72 65 -161 65
q-82 0 -124 -75t-42 -214q0 -115 43.5 -192.5t111.5 -77.5q40 0 70 21t54.5 70t37 140t12.5 222q0 5 -1 20t-1 21z" />
    <glyph glyph-name="ntilde" unicode="&#xf1;" horiz-adv-x="868" 
d="M793 0h-238v705q0 43 -20 68.5t-60 25.5q-76 0 -156 -80v-719h-237v989h194l19 -106q131 127 264 127q114 0 174 -62.5t60 -177.5v-770zM735 1337q-15 -136 -55.5 -198t-106.5 -62q-49 0 -118 37q-13 7 -32.5 17t-29.5 15t-22.5 11t-21.5 8t-17 2q-21 0 -33.5 -20.5
t-24.5 -77.5l-129 29q15 137 54 198.5t106 61.5q54 0 139 -47q82 -43 107 -43q20 0 31.5 20t21.5 76z" />
    <glyph glyph-name="ograve" unicode="&#xf2;" horiz-adv-x="884" 
d="M842 494q0 -243 -110 -378.5t-292 -135.5q-181 0 -288 135t-107 379t107 380t288 136q183 0 292.5 -135.5t109.5 -380.5zM606 494q0 144 -43 231.5t-123 87.5q-79 0 -120 -86.5t-41 -232.5q0 -144 42 -231t119 -87q81 0 123.5 86t42.5 232zM528 1073h-157l-246 254
l283 55z" />
    <glyph glyph-name="oacute" unicode="&#xf3;" horiz-adv-x="884" 
d="M754 1327l-244 -254h-158l121 309zM842 494q0 -243 -110 -378.5t-292 -135.5q-181 0 -288 135t-107 379t107 380t288 136q183 0 292.5 -135.5t109.5 -380.5zM606 494q0 144 -43 231.5t-123 87.5q-79 0 -120 -86.5t-41 -232.5q0 -144 42 -231t119 -87q81 0 123.5 86
t42.5 232z" />
    <glyph glyph-name="ocircumflex" unicode="&#xf4;" horiz-adv-x="884" 
d="M842 494q0 -243 -110 -378.5t-292 -135.5q-181 0 -288 135t-107 379t107 380t288 136q183 0 292.5 -135.5t109.5 -380.5zM606 494q0 144 -43 231.5t-123 87.5q-79 0 -120 -86.5t-41 -232.5q0 -144 42 -231t119 -87q81 0 123.5 86t42.5 232zM700 1094l-141 -29l-123 141
l-110 -133h-158l176 297h191z" />
    <glyph glyph-name="otilde" unicode="&#xf5;" horiz-adv-x="884" 
d="M842 494q0 -243 -110 -378.5t-292 -135.5q-181 0 -288 135t-107 379t107 380t288 136q183 0 292.5 -135.5t109.5 -380.5zM606 494q0 144 -43 231.5t-123 87.5q-79 0 -120 -86.5t-41 -232.5q0 -144 42 -231t119 -87q81 0 123.5 86t42.5 232zM735 1337q-15 -136 -55.5 -198
t-106.5 -62q-49 0 -118 37q-13 7 -32.5 17t-29.5 15t-22.5 11t-21.5 8t-17 2q-21 0 -33.5 -20.5t-24.5 -77.5l-129 29q15 137 54 198.5t106 61.5q54 0 139 -47q82 -43 107 -43q20 0 31.5 20t21.5 76z" />
    <glyph glyph-name="odieresis" unicode="&#xf6;" horiz-adv-x="884" 
d="M842 494q0 -243 -110 -378.5t-292 -135.5q-181 0 -288 135t-107 379t107 380t288 136q183 0 292.5 -135.5t109.5 -380.5zM606 494q0 144 -43 231.5t-123 87.5q-79 0 -120 -86.5t-41 -232.5q0 -144 42 -231t119 -87q81 0 123.5 86t42.5 232zM700 1079h-206v236h206v-236z
M381 1079h-205v236h205v-236z" />
    <glyph glyph-name="divide" unicode="&#xf7;" horiz-adv-x="952" 
d="M580 940h-205v215h205v-215zM868 623h-784v180h784v-180zM580 274h-205v215h205v-215z" />
    <glyph glyph-name="oslash" unicode="&#xf8;" horiz-adv-x="884" 
d="M836 975l-88 -133q83 -135 83 -348q0 -242 -107 -378t-288 -136q-122 0 -213 63l-35 -55l-141 30l82 123q-84 136 -84 353q0 244 105.5 380t285.5 136q128 0 219 -70l41 66zM543 758q-42 57 -107 57q-82 0 -125 -86t-43 -235q0 -71 17 -144zM592 637l-256 -412
q42 -51 100 -51q82 0 126 86t44 234q0 83 -14 143z" />
    <glyph glyph-name="ugrave" unicode="&#xf9;" horiz-adv-x="868" 
d="M786 0h-194l-17 106q-133 -126 -266 -126q-112 0 -171.5 62t-59.5 177v770h235v-706q0 -42 21 -66t63 -24q74 0 154 77v719h235v-989zM524 1073h-157l-246 254l282 55z" />
    <glyph glyph-name="uacute" unicode="&#xfa;" horiz-adv-x="868" 
d="M786 0h-194l-17 106q-133 -126 -266 -126q-112 0 -171.5 62t-59.5 177v770h235v-706q0 -42 21 -66t63 -24q74 0 154 77v719h235v-989zM733 1327l-244 -254h-157l121 309z" />
    <glyph glyph-name="ucircumflex" unicode="&#xfb;" horiz-adv-x="868" 
d="M786 0h-194l-17 106q-133 -126 -266 -126q-112 0 -171.5 62t-59.5 177v770h235v-706q0 -42 21 -66t63 -24q74 0 154 77v719h235v-989zM696 1094l-141 -29l-123 141l-110 -133h-158l176 297h190z" />
    <glyph glyph-name="udieresis" unicode="&#xfc;" horiz-adv-x="868" 
d="M786 0h-194l-17 106q-133 -126 -266 -126q-112 0 -171.5 62t-59.5 177v770h235v-706q0 -42 21 -66t63 -24q74 0 154 77v719h235v-989zM694 1079h-207v236h207v-236zM375 1079h-205v236h205v-236z" />
    <glyph glyph-name="yacute" unicode="&#xfd;" horiz-adv-x="819" 
d="M815 989l-301 -1061q-43 -153 -120 -219.5t-212 -66.5q-56 0 -96 6l-33 200q47 -12 94 -12q83 0 123 86l23 66l-289 985l244 31l170 -736l160 721h237zM723 1313l-244 -254h-157l120 309z" />
    <glyph glyph-name="thorn" unicode="&#xfe;" horiz-adv-x="901" 
d="M852 528q0 -137 -31 -242t-85.5 -168.5t-124 -95.5t-152.5 -32q-69 0 -140 22v-344l-237 -37v1811l237 37v-566q93 97 218 97q143 0 229 -122t86 -360zM618 510q0 148 -42.5 218.5t-110.5 70.5q-70 0 -146 -86v-502q49 -25 103 -25q92 0 144 79.5t52 244.5z" />
    <glyph glyph-name="ydieresis" unicode="&#xff;" horiz-adv-x="819" 
d="M815 989l-301 -1061q-43 -153 -120 -219.5t-212 -66.5q-56 0 -96 6l-33 200q47 -12 94 -12q83 0 123 86l23 66l-289 985l244 31l170 -736l160 721h237zM682 1079h-207v236h207v-236zM362 1079h-204v236h204v-236z" />
    <glyph glyph-name="dotlessi" unicode="&#x131;" horiz-adv-x="421" 
d="M330 0h-238v989h238v-989z" />
    <glyph glyph-name="Lslash" unicode="&#x141;" horiz-adv-x="962" 
d="M922 0h-744v598l-133 -31l-37 226l170 43v577h266v-508l267 64v-236l-267 -61v-434h439z" />
    <glyph glyph-name="lslash" unicode="&#x142;" horiz-adv-x="581" 
d="M569 723l-155 -37v-686h-240v625l-133 -33l-39 221l172 43v586l240 37v-561l155 36v-231z" />
    <glyph glyph-name="OE" unicode="&#x152;" horiz-adv-x="1468" 
d="M1417 0h-737q-316 0 -468.5 182.5t-152.5 522.5q0 339 154.5 523.5t466.5 184.5h719v-223h-426v-340h317l37 -227h-354v-400h444v-223zM715 217v981h-45q-167 0 -259 -119t-92 -372q0 -250 91.5 -370t255.5 -120h49z" />
    <glyph glyph-name="oe" unicode="&#x153;" horiz-adv-x="1390" 
d="M1343 514q0 -66 -2 -80h-503q9 -127 60 -197.5t144 -70.5q133 0 269 94l30 -184q-133 -96 -325 -96q-101 0 -181.5 42t-115.5 117q-89 -159 -285 -159q-176 0 -282.5 135t-106.5 379t107.5 380t283.5 136q204 0 285 -170q81 170 268 170q74 0 133.5 -25t100 -69.5
t68 -107.5t40 -136t12.5 -158zM1116 586q-1 118 -38 186t-97 68q-59 0 -96 -65.5t-47 -188.5h278zM606 496q0 140 -43.5 228.5t-122.5 88.5t-120 -86.5t-41 -232.5q0 -144 42 -231t119 -87q82 0 124 86t42 234z" />
    <glyph glyph-name="Scaron" unicode="&#x160;" horiz-adv-x="872" 
d="M827 371q0 -179 -111.5 -283t-297.5 -104q-203 0 -361 82l37 231q169 -96 309 -96q77 0 121.5 39t44.5 108q0 74 -45.5 133t-161.5 142q-56 40 -92 68.5t-77.5 71t-65 82t-39.5 93.5t-16 115q0 167 105.5 272t281.5 105q95 0 161.5 -16t131.5 -50l-37 -236
q-122 84 -242 84q-69 0 -106 -39t-37 -96q0 -67 45.5 -120t156.5 -128q72 -52 120 -94.5t91 -98t63.5 -121t20.5 -144.5zM711 1815l-176 -297h-193l-166 274l143 29l121 -140l111 134h160z" />
    <glyph glyph-name="scaron" unicode="&#x161;" horiz-adv-x="720" 
d="M686 274q0 -132 -88.5 -213t-245.5 -81q-170 0 -315 86l33 204q165 -100 282 -100q54 0 84.5 25t30.5 65q0 43 -38 81t-124 79q-129 63 -190.5 131.5t-61.5 179.5q0 118 82.5 198.5t220.5 80.5q151 0 275 -62l-33 -200q-137 73 -233 73q-41 0 -67 -21.5t-26 -58.5
t35 -71.5t115 -73.5q134 -64 199 -136.5t65 -185.5zM631 1368l-176 -297h-193l-166 275l144 28l120 -139l111 133h160z" />
    <glyph glyph-name="Ydieresis" unicode="&#x178;" horiz-adv-x="1030" 
d="M1036 1413l-397 -885v-528h-260v526l-383 856l274 43l248 -626l244 614h274zM786 1489h-206v235h206v-235zM467 1489h-205v235h205v-235z" />
    <glyph glyph-name="Zcaron" unicode="&#x17d;" horiz-adv-x="929" 
d="M891 0h-838v199l533 999h-469l-35 215h801v-199l-531 -999h508zM766 1796l-176 -297h-193l-166 275l144 28l121 -139l110 133h160z" />
    <glyph glyph-name="zcaron" unicode="&#x17e;" horiz-adv-x="747" 
d="M723 0h-690v172l393 625h-338l-33 192h643v-172l-395 -624h387zM659 1370l-176 -297h-192l-166 275l143 28l121 -139l111 133h159z" />
    <glyph glyph-name="florin" unicode="&#x192;" horiz-adv-x="802" 
d="M266 948l27 166q26 161 113.5 238.5t242.5 77.5q43 0 113 -9v-194q-54 8 -92 8q-59 0 -99.5 -38t-50.5 -107l-22 -142h178v-196h-209l-121 -752h-229l119 752h-136l31 196h135z" />
    <glyph glyph-name="circumflex" unicode="&#x2c6;" 
d="M629 1130l-142 -28l-122 141l-111 -133h-158l176 297h191z" />
    <glyph glyph-name="caron" unicode="&#x2c7;" 
d="M631 1405l-176 -297h-193l-166 274l144 29l120 -139l111 133h160z" />
    <glyph glyph-name="breve" unicode="&#x2d8;" 
d="M610 1413q-9 -145 -70.5 -224t-172.5 -79q-104 0 -167 75t-75 212l139 24q15 -143 109 -143q40 0 66.5 35t33.5 100h137z" />
    <glyph glyph-name="dotaccent" unicode="&#x2d9;" 
d="M479 1116h-215v236h215v-236z" />
    <glyph glyph-name="ring" unicode="&#x2da;" 
d="M584 1305q0 -86 -58 -141.5t-153 -55.5q-98 0 -155.5 55t-57.5 142q0 86 58 142t155 56q95 0 153 -56.5t58 -141.5zM459 1305q0 44 -23 73t-61 29q-42 0 -67 -29t-25 -73q0 -45 25 -73t67 -28q38 0 61 28t23 73z" />
    <glyph glyph-name="ogonek" unicode="&#x2db;" 
d="M549 -362h-154l-229 217l276 59z" />
    <glyph glyph-name="tilde" unicode="&#x2dc;" 
d="M668 1374q-15 -136 -55.5 -198t-106.5 -62q-50 0 -119 37q-13 7 -32.5 17t-29.5 15t-22.5 11t-21.5 8t-17 2q-21 0 -33 -20.5t-24 -77.5l-129 29q15 137 54 198.5t106 61.5q54 0 139 -47q34 -18 48 -25t30 -12.5t28 -5.5q21 0 32.5 20t21.5 76z" />
    <glyph glyph-name="hungarumlaut" unicode="&#x2dd;" horiz-adv-x="864" 
d="M782 1366l-235 -252h-133l121 305zM463 1366l-232 -252h-133l121 305z" />
    <glyph glyph-name="Delta" unicode="&#x394;" horiz-adv-x="1024" 
d="M51 -410v2048h922v-2048h-922z" />
    <glyph glyph-name="Omega" unicode="&#x3a9;" horiz-adv-x="1134" 
d="M1135 1255q-56 9 -88 9q-57 0 -84 -29t-27 -92v-154h158l32 -201h-190v-788h-227v788h-125v201h125v189q0 141 75 211.5t205 70.5q67 0 115 -10zM569 1255q-61 9 -90 9q-57 0 -83.5 -29t-26.5 -92v-154h157l35 -201h-192v-788h-228v788h-123v201h123v189q0 141 76 211.5
t207 70.5q68 0 113 -10z" />
    <glyph glyph-name="pi" unicode="&#x3c0;" horiz-adv-x="1296" 
d="M1229 709q0 -217 -74 -385t-206 -259.5t-302 -91.5q-258 0 -418.5 202t-160.5 530q0 217 73 384.5t205.5 259t302.5 91.5t302 -91t205 -257.5t73 -382.5zM1143 707q0 304 -139.5 481.5t-354.5 177.5q-218 0 -356.5 -177t-138.5 -482t138.5 -482.5t356.5 -177.5
q216 0 355 177.5t139 482.5zM924 864q0 -128 -77.5 -196t-215.5 -70h-29v-303h-151v825h190q131 0 207 -66.5t76 -189.5zM776 860q0 135 -137 135h-39v-274h35q141 0 141 139z" />
    <glyph glyph-name="endash" unicode="&#x2013;" horiz-adv-x="739" 
d="M684 475h-629v225h629v-225z" />
    <glyph glyph-name="emdash" unicode="&#x2014;" horiz-adv-x="1437" 
d="M1382 477h-1327v223h1327v-223z" />
    <glyph glyph-name="quoteleft" unicode="&#x2018;" horiz-adv-x="385" 
d="M326 1399l-23 -463h-272l157 494z" />
    <glyph glyph-name="quoteright" unicode="&#x2019;" horiz-adv-x="385" 
d="M354 1413l-157 -493l-138 32l23 461h272z" />
    <glyph glyph-name="quotesinglbase" unicode="&#x201a;" horiz-adv-x="385" 
d="M354 309l-157 -491l-138 30l23 461h272z" />
    <glyph glyph-name="quotedblleft" unicode="&#x201c;" horiz-adv-x="749" 
d="M319 1399l-24 -463h-264l153 494zM690 1399l-24 -463h-265l154 494z" />
    <glyph glyph-name="quotedblright" unicode="&#x201d;" horiz-adv-x="749" 
d="M348 1413l-155 -493l-134 32l23 461h266zM719 1413l-154 -493l-135 32l25 461h264z" />
    <glyph glyph-name="quotedblbase" unicode="&#x201e;" horiz-adv-x="749" 
d="M348 309l-155 -491l-134 30l23 461h266zM719 309l-154 -491l-135 30l25 461h264z" />
    <glyph glyph-name="dagger" unicode="&#x2020;" horiz-adv-x="929" 
d="M565 1251l-65 -276h-72l-63 276v162h200v-162zM852 797h-66l-241 63v68l241 63h66v-194zM383 860l-242 -63h-65v194h65l242 -63v-68zM555 29l-59 -262h-64l-59 262v542l55 244h72l55 -244v-542z" />
    <glyph glyph-name="daggerdbl" unicode="&#x2021;" horiz-adv-x="958" 
d="M580 1251l-64 -276h-72l-63 276v162h199v-162zM868 797h-65l-242 63v68l242 63h65v-194zM399 860l-241 -63h-66v194h66l241 -63v-68zM569 471l-53 -244h-72l-55 244v100l55 244h72l53 -244v-100zM868 49h-65l-242 64v67l242 64h65v-195zM399 113l-241 -64h-66v195h66
l241 -64v-67zM580 -373h-199v162l63 279h72l64 -279v-162z" />
    <glyph glyph-name="bullet" unicode="&#x2022;" horiz-adv-x="837" 
d="M700 707l-43 -287l-239 -43l-236 43l-47 287l47 288l236 39l239 -39z" />
    <glyph glyph-name="ellipsis" unicode="&#x2026;" horiz-adv-x="1198" 
d="M1128 0h-256v303h256v-303zM727 0h-256v303h256v-303zM326 0h-254v303h254v-303z" />
    <glyph glyph-name="perthousand" unicode="&#x2030;" horiz-adv-x="1296" 
d="M1229 709q0 -217 -74 -385t-206 -259.5t-302 -91.5q-258 0 -418.5 202t-160.5 530q0 217 73 384.5t205.5 259t302.5 91.5t302 -91t205 -257.5t73 -382.5zM1143 707q0 304 -139.5 481.5t-354.5 177.5q-218 0 -356.5 -177t-138.5 -482t138.5 -482.5t356.5 -177.5
q216 0 355 177.5t139 482.5zM748 653l186 -342l-148 -28l-180 335h-37v-323h-149v825h192q129 0 205 -63.5t76 -179.5q0 -168 -145 -224zM606 995h-39v-264h35q141 0 141 135q0 129 -137 129z" />
    <glyph glyph-name="guilsinglleft" unicode="&#x2039;" horiz-adv-x="548" 
d="M506 989l-221 -493l209 -471l-168 -39l-297 510l295 493h182z" />
    <glyph glyph-name="guilsinglright" unicode="&#x203a;" horiz-adv-x="548" 
d="M520 496l-297 -494h-174l217 494l-213 471l170 39z" />
    <glyph glyph-name="fraction" unicode="&#x2044;" horiz-adv-x="772" 
d="M813 1397l-719 -1415l-133 34l719 1416z" />
    <glyph glyph-name="trademark" unicode="&#x2122;" horiz-adv-x="1259" 
d="M1176 707h-125l-21 503l-119 -505h-125l-118 505l-21 -503h-117l33 706h168l121 -510l123 510h172zM506 1294h-168v-587h-131v587h-156v119h434z" />
    <glyph glyph-name="partialdiff" unicode="&#x2202;" horiz-adv-x="1148" 
d="M745 293l-213 207l213 65q4 -4 11 -10.5t22 -20.5t24.5 -23t8.5 -9q14 85 14 205q0 246 -63 381t-189 135q-251 0 -251 -516q0 -517 251 -517q110 0 172 103zM1018 309l98 -90l-35 -246l-168 158q-133 -151 -342 -151q-247 0 -379.5 192t-132.5 535q0 345 134 539
t380 194t379 -191.5t133 -537.5q0 -237 -67 -402z" />
    <glyph glyph-name="product" unicode="&#x220f;" horiz-adv-x="1024" 
d="M51 -410v2048h922v-2048h-922z" />
    <glyph glyph-name="summation" unicode="&#x2211;" horiz-adv-x="1531" 
d="M1530 1413l-350 -1417h-256l-156 643l-166 -643h-250l-344 1384l254 45l238 -1069l168 664l-84 362l241 43l217 -1073l230 1061h258z" />
    <glyph glyph-name="minus" unicode="&#x2212;" horiz-adv-x="1024" 
d="M51 -410v2048h922v-2048h-922z" />
    <glyph glyph-name="radical" unicode="&#x221a;" horiz-adv-x="1554" 
d="M1462 0h-237v1442l237 37v-1479zM1135 1255q-56 9 -88 9q-57 0 -84 -29t-27 -92v-154h158l32 -201h-190v-788h-227v788h-125v201h125v189q0 141 75 211.5t205 70.5q67 0 115 -10zM569 1255q-61 9 -90 9q-57 0 -83.5 -29t-26.5 -92v-154h157l35 -201h-192v-788h-228v788
h-123v201h123v189q0 141 76 211.5t207 70.5q68 0 113 -10z" />
    <glyph glyph-name="infinity" unicode="&#x221e;" horiz-adv-x="808" 
d="M731 0h-194l-17 100q-117 -120 -248 -120q-106 0 -171.5 70t-65.5 202q0 165 119.5 257t341.5 126v47q0 73 -31 105t-96 32q-98 0 -242 -80l-31 193q173 78 328 78q158 0 232.5 -75.5t74.5 -240.5v-694zM496 242v245q-126 -25 -182 -81.5t-56 -131.5q0 -52 24 -82t64 -30
q73 0 150 80z" />
    <glyph glyph-name="integral" unicode="&#x222b;" horiz-adv-x="901" 
d="M819 -16q0 -357 -381 -357q-179 0 -342 68l35 194q138 -69 283 -69q168 0 168 157v113q-89 -96 -211 -96q-141 0 -230.5 120.5t-89.5 352.5q0 269 116 401.5t320 132.5q167 0 332 -61v-956zM582 285v495q-53 23 -105 23q-88 0 -140 -80t-52 -242q0 -143 42 -210.5
t111 -67.5q72 0 144 82z" />
    <glyph glyph-name="approxequal" unicode="&#x2248;" horiz-adv-x="1554" 
d="M1483 1286q0 -59 -39.5 -99t-97.5 -40q-59 0 -99.5 40.5t-40.5 98.5t40.5 98.5t99.5 40.5q58 0 97.5 -40t39.5 -99zM1135 1255q-56 9 -88 9q-57 0 -84 -29t-27 -92v-154h158l32 -201h-190v-788h-227v788h-125v201h125v189q0 141 75 211.5t205 70.5q67 0 115 -10z
M569 1255q-61 9 -90 9q-57 0 -83.5 -29t-26.5 -92v-154h157l35 -201h-192v-788h-228v788h-123v201h123v189q0 141 76 211.5t207 70.5q68 0 113 -10zM1462 0h-235v989h235v-989z" />
    <glyph glyph-name="notequal" unicode="&#x2260;" horiz-adv-x="856" 
d="M803 416q0 -206 -120 -324.5t-318 -118.5q-90 0 -181 26.5t-159 66.5l36 221q51 -40 131 -69.5t154 -29.5q91 0 148 59t57 163q0 111 -72.5 171t-212.5 60h-51l-25 154l289 405h-420l-28 213h743v-190l-291 -416q146 -30 233 -127.5t87 -263.5z" />
    <glyph glyph-name="lessequal" unicode="&#x2264;" horiz-adv-x="1484" 
d="M1372 0h-242v1044l-278 -1050h-229l-283 1050v-1044h-223v1413h344l282 -1057l287 1057h342v-1413z" />
    <glyph glyph-name="greaterequal" unicode="&#x2265;" horiz-adv-x="1089" 
d="M436 -16q-163 0 -251.5 86t-88.5 264v1079h262v-1046q0 -150 136 -150q116 0 229 94v1102h262v-1413h-217l-14 96q-157 -112 -318 -112z" />
    <glyph glyph-name="lozenge" unicode="&#x25ca;" horiz-adv-x="1253" 
d="M1169 707h-125l-20 503l-119 -505h-125l-118 505l-21 -503h-119l33 706h170l121 -510l123 510h172zM258 690q-96 0 -184 43l20 121q80 -47 158 -47q37 0 58.5 19t21.5 51q0 36 -23.5 66t-79.5 69q-37 27 -58 45t-44.5 45.5t-34 59t-10.5 69.5q0 86 54 141t143 55
q76 0 149 -34l-20 -121q-58 39 -121 39q-34 0 -52 -19t-18 -47q0 -33 23 -59.5t77 -61.5q74 -51 113 -103.5t39 -129.5q0 -92 -57.5 -146.5t-153.5 -54.5z" />
    <glyph glyph-name="apple" unicode="&#xf8ff;" horiz-adv-x="1421" 
d="M1319 -410h-426l-16 29h-334l-17 -29h-424v621q28 0 47 18.5t19 46.5q0 27 -19.5 46.5t-46.5 19.5v1135h205l62 161h684l59 -161h207v-1887zM819 1153v-352h31v160h78v28h-78v135h88v29h-119zM377 1153v-352h31v162h96v-162h31v352h-31v-162h-96v162h-31zM942 807
q16 -8 43 -8q64 0 64 73v281h-33v-281q0 -45 -33 -45q-19 0 -41 13v-33zM1071 662v-95h16v27l15 14l33 -41h18l-39 54l37 41h-21l-43 -50v50h-16zM999 598l21 -31h18l-24 35q20 7 20 31q0 10 -9.5 19.5t-23.5 9.5h-43v-95h17v31h24zM872 565q23 0 36.5 14t13.5 35
q0 19 -14.5 34.5t-35.5 15.5t-34 -15t-13 -35q0 -21 13 -35t34 -14zM758 616l-27 46h-18l37 -60v-35h16v35l37 60h-19zM395 662v-95h68v15h-51v26h45v15h-45v24h51v15h-68zM270 662v-95h17v66l51 -66h14v95h-16v-66l-51 66h-15zM494 662l30 -97h17l20 70h2l23 -70h16l29 97
h-17l-20 -72h-2l-21 72h-16l-23 -72h-2l-20 72h-16zM670 981q-25 48 -25 66q0 15 8.5 26.5t20.5 11.5t19 -11t7 -27q0 -31 -30 -66zM700 866q-5 -16 -15.5 -29.5t-20.5 -13.5q-15 0 -25 16.5t-10 39.5q0 37 30 67zM999 612h-24v35h22q21 0 21 -16q0 -7 -6 -13t-13 -6z
M872 580q-13 0 -21.5 10t-8.5 24q0 13 8.5 24t21.5 11t23 -11t10 -24q0 -14 -10 -24t-23 -10zM715 897l-33 64q47 44 47 86q0 25 -14.5 44t-40.5 19q-25 0 -41.5 -19t-16.5 -44q0 -9 1 -16.5t4.5 -16.5t6 -13.5t9 -16.5t8.5 -17q-47 -38 -47 -93q0 -34 18 -56.5t46 -22.5
q35 0 55 49h2l24 -49l23 16l-33 61q22 54 27 80l-27 6q-5 -21 -18 -61z" />
    <glyph glyph-name="fi" unicode="&#xfb01;" horiz-adv-x="989" 
d="M915 1286q0 -58 -40.5 -98.5t-98.5 -40.5q-57 0 -96 40t-39 99t39 99t96 40q58 0 98.5 -40.5t40.5 -98.5zM569 1255q-61 9 -90 9q-57 0 -83.5 -29t-26.5 -92v-154h157l35 -201h-192v-788h-228v788h-123v201h123v189q0 141 76 211.5t207 70.5q68 0 113 -10zM895 0h-236
v989h236v-989z" />
    <glyph glyph-name="fl" unicode="&#xfb02;" horiz-adv-x="989" 
d="M895 0h-233v1442l233 37v-1479zM569 1255q-61 9 -90 9q-57 0 -83.5 -29t-26.5 -92v-154h157l35 -201h-192v-788h-228v788h-123v201h123v189q0 141 76 211.5t207 70.5q68 0 113 -10z" />
    <glyph glyph-name="NUL" horiz-adv-x="0" 
 />
    </font>
</defs>
</svg>
